<svg width="816" height="116" xmlns="http://www.w3.org/2000/svg" xmlns:xlink="http://www.w3.org/1999/xlink" xml:space="preserve" overflow="hidden"><g transform="translate(-72 -280)"><path d="M0 0 19.8112 0 19.8112 35.189C24.374 29.3252 30.2378 23.9792 40.2761 23.9792 55.2655 23.9792 63.9964 33.8816 63.9964 49.9195L63.9964 95.1468 44.1852 95.1468 44.1852 56.1781C44.1852 46.7935 39.7518 41.9718 32.1924 41.9718 24.6329 41.9718 19.8112 46.7935 19.8112 56.1781L19.8112 95.1468 0 95.1468 0 0Z" fill="#0D1A13" transform="matrix(1.00014 0 0 1 72.5236 280)"/><path d="M70.7728 60.605 70.7728 60.3461C70.7728 40.4055 84.9791 23.9792 105.315 23.9792 128.647 23.9792 139.332 42.0947 139.332 61.9059 139.332 63.4722 139.203 65.2973 139.073 67.1225L90.4545 67.1225C92.4091 76.1187 98.6676 80.811 107.528 80.811 114.175 80.811 118.997 78.727 124.472 73.6399L135.811 83.6782C129.294 91.7619 119.909 96.7131 107.269 96.7131 86.2865 96.7131 70.7728 81.9825 70.7728 60.6115ZM120.045 54.7413C118.874 45.8809 113.657 39.8813 105.315 39.8813 96.9719 39.8813 91.7619 45.745 90.1956 54.7413L120.045 54.7413Z" fill="#0D1A13" transform="matrix(1.00014 0 0 1 72.5236 280)"/><path d="M142.853 75.0767 142.853 74.8178C142.853 59.5695 154.451 52.5278 171.007 52.5278 178.042 52.5278 183.129 53.6993 188.08 55.395L188.08 54.2235C188.08 46.0104 183 41.4475 173.091 41.4475 165.531 41.4475 160.185 42.8779 153.797 45.2272L148.846 30.1084C156.535 26.7234 164.094 24.5035 175.958 24.5035 186.779 24.5035 194.598 27.3706 199.549 32.3218 204.765 37.5384 207.108 45.2272 207.108 54.6118L207.108 95.1468 187.951 95.1468 187.951 87.5873C183.129 92.9333 176.482 96.4477 166.839 96.4477 153.674 96.4477 142.853 88.8882 142.853 75.0702ZM188.339 70.5139 188.339 66.993C184.948 65.4268 180.521 64.3848 175.699 64.3848 167.227 64.3848 162.01 67.7762 162.01 74.0282L162.01 74.2871C162.01 79.6331 166.444 82.7591 172.825 82.7591 182.08 82.7591 188.339 77.6785 188.339 70.5074Z" fill="#0D1A13" transform="matrix(1.00014 0 0 1 72.5236 280)"/><path d="M218.059 0 237.87 0 237.87 95.1468 218.059 95.1468 218.059 0Z" fill="#0D1A13" transform="matrix(1.00014 0 0 1 72.5236 280)"/><path d="M252.73 75.3356 252.73 42.2307 244.388 42.2307 244.388 25.2866 252.73 25.2866 252.73 7.43001 272.541 7.43001 272.541 25.2866 288.968 25.2866 288.968 42.2307 272.541 42.2307 272.541 72.0801C272.541 76.643 274.496 78.8564 278.929 78.8564 282.58 78.8564 285.835 77.9439 288.702 76.3776L288.702 92.2796C284.534 94.7585 279.706 96.3183 273.059 96.3183 260.937 96.3183 252.724 91.4965 252.724 75.3356Z" fill="#0D1A13" transform="matrix(1.00014 0 0 1 72.5236 280)"/><path d="M296.521 0 316.332 0 316.332 35.189C320.895 29.3252 326.758 23.9792 336.797 23.9792 351.786 23.9792 360.517 33.8816 360.517 49.9195L360.517 95.1468 340.706 95.1468 340.706 56.1781C340.706 46.7935 336.273 41.9718 328.713 41.9718 321.154 41.9718 316.332 46.7935 316.332 56.1781L316.332 95.1468 296.521 95.1468 296.521 0Z" fill="#0D1A13" transform="matrix(1.00014 0 0 1 72.5236 280)"/><path d="M370.685 25.2866 390.496 25.2866 390.496 35.3249C395.318 28.8075 401.965 23.9857 412.262 23.9857 428.552 23.9857 444.066 36.7617 444.066 60.0873L444.066 60.3461C444.066 83.6782 428.818 96.4477 412.262 96.4477 401.706 96.4477 395.188 91.626 390.496 86.0211L390.496 116 370.685 116 370.685 25.2866ZM424.255 60.3461 424.255 60.0873C424.255 48.4892 416.436 40.8003 407.181 40.8003 397.926 40.8003 390.237 48.4892 390.237 60.0873L390.237 60.3461C390.237 71.9442 397.926 79.6331 407.181 79.6331 416.436 79.6331 424.255 72.0737 424.255 60.3461Z" fill="#0D1A13" transform="matrix(1.00014 0 0 1 72.5236 280)"/><path d="M452.538 0 472.349 0 472.349 95.1468 452.538 95.1468 452.538 0Z" fill="#0D1A13" transform="matrix(1.00014 0 0 1 72.5236 280)"/><path d="M479.779 75.0767 479.779 74.8178C479.779 59.5695 491.377 52.5278 507.933 52.5278 514.974 52.5278 520.055 53.6993 525.006 55.395L525.006 54.2235C525.006 46.0104 519.926 41.4475 510.017 41.4475 502.457 41.4475 497.111 42.8779 490.73 45.2272L485.779 30.1084C493.468 26.7234 501.027 24.5035 512.891 24.5035 523.712 24.5035 531.53 27.3706 536.481 32.3218 541.698 37.5384 544.041 45.2272 544.041 54.6118L544.041 95.1468 524.883 95.1468 524.883 87.5873C520.062 92.9333 513.415 96.4477 503.765 96.4477 490.6 96.4477 479.786 88.8882 479.786 75.0702ZM525.265 70.5139 525.265 66.993C521.874 65.4268 517.447 64.3848 512.625 64.3848 504.153 64.3848 498.937 67.7762 498.937 74.0282L498.937 74.2871C498.937 79.6331 503.37 82.7591 509.751 82.7591 519.007 82.7591 525.265 77.6785 525.265 70.5074Z" fill="#0D1A13" transform="matrix(1.00014 0 0 1 72.5236 280)"/><path d="M554.073 25.2866 573.884 25.2866 573.884 35.1954C578.447 29.3317 584.31 23.9857 594.349 23.9857 609.338 23.9857 618.069 33.8881 618.069 49.926L618.069 95.1533 598.258 95.1533 598.258 56.1846C598.258 46.8 593.825 41.9782 586.265 41.9782 578.706 41.9782 573.884 46.8 573.884 56.1846L573.884 95.1533 554.073 95.1533 554.073 25.2866Z" fill="#0D1A13" transform="matrix(1.00014 0 0 1 72.5236 280)"/><path d="M622.761 85.8917 631.233 72.8568C638.793 78.3322 646.747 81.1994 653.258 81.1994 658.992 81.1994 661.601 79.1153 661.601 75.9828L661.601 75.7239C661.601 71.42 654.824 69.9896 647.135 67.6402 637.363 64.7731 626.282 60.2102 626.282 46.6576L626.282 46.3987C626.282 32.1924 637.751 24.2381 651.828 24.2381 660.688 24.2381 670.338 27.2347 677.898 32.3218L670.338 46.0104C663.432 41.9718 656.52 39.4929 651.439 39.4929 646.359 39.4929 644.139 41.577 644.139 44.3147L644.139 44.5736C644.139 48.4827 650.786 50.3079 658.345 52.9161 668.118 56.1781 679.464 60.8704 679.464 73.6399L679.464 73.8988C679.464 89.4125 667.866 96.4477 652.747 96.4477 642.974 96.4477 632.023 93.1922 622.768 85.8917Z" fill="#0D1A13" transform="matrix(1.00014 0 0 1 72.5236 280)"/><path d="M719.306 75.0767 719.306 74.8178C719.306 59.5695 730.904 52.5278 747.46 52.5278 754.495 52.5278 759.582 53.6993 764.533 55.395L764.533 54.2235C764.533 46.0104 759.453 41.4475 749.544 41.4475 741.985 41.4475 736.639 42.8779 730.251 45.2272L725.299 30.1084C732.988 26.7234 740.548 24.5035 752.411 24.5035 763.233 24.5035 771.051 27.3706 776.002 32.3218 781.219 37.5384 783.562 45.2272 783.562 54.6118L783.562 95.1468 764.404 95.1468 764.404 87.5873C759.582 92.9333 752.935 96.4477 743.292 96.4477 730.128 96.4477 719.306 88.8882 719.306 75.0702ZM764.792 70.5139 764.792 66.993C761.401 65.4268 756.974 64.3848 752.152 64.3848 743.68 64.3848 738.464 67.7762 738.464 74.0282L738.464 74.2871C738.464 79.6331 742.897 82.7591 749.279 82.7591 758.534 82.7591 764.792 77.6785 764.792 70.5074Z" fill="#0D1A13" transform="matrix(1.00014 0 0 1 72.5236 280)"/><path d="M793.988 0 814.841 0 814.841 17.5977 793.988 17.5977 793.988 0ZM794.512 25.2866 814.323 25.2866 814.323 95.1468 794.512 95.1468 794.512 25.2866Z" fill="#0D1A13" transform="matrix(1.00014 0 0 1 72.5236 280)"/><path d="M705.074 79.4519 704.148 79.4519C702.822 76.863 702.116 73.1739 699.793 71.3294 698.621 70.4038 692.557 68.0739 692.466 67.6726 692.343 67.1484 692.906 66.993 693.23 66.7794 695.366 65.375 698.641 64.9478 700.466 63.0321 701.54 61.9059 703.993 55.1879 704.614 55.2008 706.705 57.7379 706.711 61.6406 709.43 63.6922 710.433 64.4495 716.75 66.9154 716.756 67.3425 714.711 69.4783 710.53 69.679 708.595 71.8212 707.016 73.5622 706.181 77.3161 705.08 79.4519Z" fill="#0D1A13" transform="matrix(1.00014 0 0 1 72.5236 280)"/><path d="M695.987 76.5718C696.427 76.4294 697.016 76.4747 697.243 76.9213 699.566 81.4388 700.453 87.6456 705.249 90.2409 707.967 91.7101 711.669 92.6227 714.29 94.1371 714.95 94.519 715.345 94.8426 714.776 95.6063 714.251 96.3118 706.459 99.1142 704.867 100.066 700.252 102.829 699.857 108.486 697.404 112.725 696.66 114.013 696.207 114.013 695.463 112.725 692.9 108.292 692.848 103.017 687.936 100.13 685.347 98.6094 680.648 97.4444 678.506 95.904 677.03 94.8426 678.163 94.3507 679.224 93.82 683.535 91.6583 689.081 90.7846 691.567 86.28 692.279 84.9855 695.411 76.7595 695.994 76.5718Z" fill="#0D1A13" transform="matrix(1.00014 0 0 1 72.5236 280)"/></g></svg>